<svg width="16.000000" height="16.000000" viewBox="0 0 16 16" fill="none" xmlns="http://www.w3.org/2000/svg" xmlns:xlink="http://www.w3.org/1999/xlink">
	<desc>
			Created with Pixso.
	</desc>
	<defs>
		<clipPath id="clip1_767">
			<rect id="Icon/Basic/Instagram/16px" width="16.000000" height="16.000000" fill="white" fill-opacity="0"/>
		</clipPath>
	</defs>
	<rect id="Icon/Basic/Instagram/16px" width="16.000000" height="16.000000" fill="#FFFFFF" fill-opacity="0"/>
	<g clip-path="url(#clip1_767)">
		<path id="Vector" d="M15.9843 4.7041C15.9468 3.854 15.8093 3.26953 15.6124 2.76294C15.4092 2.22534 15.0967 1.74414 14.6872 1.34399C14.2871 0.937744 13.8026 0.621826 13.2712 0.421875C12.7619 0.225098 12.1805 0.0876465 11.3303 0.0500488C10.4738 0.00952148 10.202 0 8.02966 0C5.85736 0 5.58545 0.00952148 4.73212 0.046875C3.88196 0.0844727 3.29749 0.221924 2.7912 0.418701C2.25348 0.621826 1.77222 0.93457 1.37207 1.34399C0.965759 1.74414 0.650146 2.22852 0.450012 2.76001C0.253113 3.26953 0.115601 3.85083 0.078125 4.70093C0.0374756 5.55737 0.0280762 5.82935 0.0280762 8.00146C0.0280762 10.1738 0.0374756 10.4458 0.0749512 11.2991C0.112427 12.1492 0.250061 12.7336 0.44696 13.2402C0.650146 13.7778 0.965759 14.259 1.37207 14.6592C1.77222 15.0654 2.25665 15.3811 2.78802 15.5811C3.29749 15.7781 3.87878 15.9155 4.72906 15.9531C5.58228 15.9907 5.85431 16 8.02661 16C10.1989 16 10.4708 15.9907 11.3241 15.9531C12.1743 15.9155 12.7587 15.7781 13.265 15.5811C14.3403 15.1655 15.1905 14.3152 15.6062 13.2402C15.803 12.7307 15.9406 12.1492 15.9781 11.2991C16.0156 10.4458 16.025 10.1738 16.025 8.00146C16.025 5.82935 16.0218 5.55737 15.9843 4.7041ZM14.5435 11.2366C14.509 12.0181 14.3778 12.4399 14.2684 12.7212C13.9996 13.4182 13.4464 13.9714 12.7493 14.2402C12.468 14.3496 12.043 14.481 11.2646 14.5154C10.4207 14.553 10.1676 14.5623 8.03284 14.5623C5.89801 14.5623 5.64172 14.553 4.80084 14.5154C4.01947 14.481 3.59747 14.3496 3.31622 14.2402C2.9693 14.1121 2.65356 13.9089 2.39734 13.6433C2.13165 13.3838 1.92847 13.0713 1.80029 12.7244C1.69086 12.4431 1.55963 12.0181 1.52533 11.2397C1.48773 10.3958 1.47845 10.1426 1.47845 8.00781C1.47845 5.87305 1.48773 5.6167 1.52533 4.77588C1.55963 3.99463 1.69086 3.57251 1.80029 3.29126C1.92847 2.94434 2.13165 2.62866 2.40051 2.37231C2.65979 2.10669 2.97235 1.90356 3.3194 1.77539C3.60065 1.66602 4.02582 1.53467 4.80402 1.50024C5.64795 1.46289 5.90118 1.45337 8.03589 1.45337C10.1738 1.45337 10.4269 1.46289 11.2678 1.50024C12.0492 1.53467 12.4712 1.66602 12.7525 1.77539C13.0994 1.90356 13.4151 2.10669 13.6714 2.37231C13.937 2.63184 14.1402 2.94434 14.2684 3.29126C14.3778 3.57251 14.509 3.99756 14.5435 4.77588C14.581 5.61987 14.5904 5.87305 14.5904 8.00781C14.5904 10.1426 14.581 10.3926 14.5435 11.2366Z" fill="#39374D" fill-opacity="1.000000" fill-rule="nonzero"/>
		<path id="Vector" d="M8.02972 3.8916C5.76062 3.8916 3.91956 5.73242 3.91956 8.00171C3.91956 10.271 5.76062 12.1121 8.02972 12.1121C10.299 12.1121 12.1399 10.271 12.1399 8.00171C12.1399 5.73242 10.299 3.8916 8.02972 3.8916ZM8.02972 10.668C6.55762 10.668 5.36359 9.47388 5.36359 8.00171C5.36359 6.52954 6.55762 5.33569 8.02972 5.33569C9.50195 5.33569 10.6959 6.52954 10.6959 8.00171C10.6959 9.47388 9.50195 10.668 8.02972 10.668Z" fill="#39374D" fill-opacity="1.000000" fill-rule="nonzero"/>
		<path id="Vector" d="M13.262 3.729C13.262 4.25903 12.8323 4.68872 12.3023 4.68872C11.7724 4.68872 11.3428 4.25903 11.3428 3.729C11.3428 3.19897 11.7724 2.76953 12.3023 2.76953C12.8323 2.76953 13.262 3.19897 13.262 3.729Z" fill="#39374D" fill-opacity="1.000000" fill-rule="nonzero"/>
	</g>
</svg>
