<svg width="16.000000" height="16.000000" viewBox="0 0 16 16" fill="none" xmlns="http://www.w3.org/2000/svg" xmlns:xlink="http://www.w3.org/1999/xlink">
	<desc>
			Created with Pixso.
	</desc>
	<defs>
		<clipPath id="clip1_766">
			<rect id="Icon/Basic/Twitter16px" width="16.000000" height="16.000000" fill="white" fill-opacity="0"/>
		</clipPath>
	</defs>
	<rect id="Icon/Basic/Twitter16px" width="16.000000" height="16.000000" fill="#FFFFFF" fill-opacity="0"/>
	<g clip-path="url(#clip1_766)">
		<path id="Vector" d="M16 3.03906C15.405 3.30005 14.771 3.4729 14.11 3.55688C14.79 3.15088 15.309 2.51294 15.553 1.7439C14.919 2.12207 14.219 2.38892 13.473 2.53809C12.871 1.89697 12.013 1.5 11.077 1.5C9.26099 1.5 7.79901 2.97412 7.79901 4.78101C7.79901 5.04102 7.82098 5.29102 7.875 5.52905C5.14801 5.396 2.73499 4.08911 1.11401 2.0979C0.830994 2.58911 0.664978 3.15088 0.664978 3.7561C0.664978 4.89209 1.25 5.89893 2.12201 6.48193C1.59497 6.47192 1.078 6.31909 0.640015 6.07788C0.640015 6.08789 0.640015 6.10107 0.640015 6.11401C0.640015 7.70801 1.77698 9.03198 3.26801 9.33691C3.00098 9.40991 2.71002 9.44507 2.40802 9.44507C2.198 9.44507 1.98602 9.43311 1.78699 9.38892C2.21198 10.688 3.41803 11.6431 4.85199 11.6741C3.73602 12.5471 2.31897 13.073 0.784973 13.073C0.515991 13.073 0.257996 13.061 0 13.0281C1.453 13.9651 3.17499 14.5 5.03198 14.5C11.068 14.5 14.368 9.5 14.368 5.16602C14.368 5.021 14.363 4.8811 14.356 4.74194C15.007 4.28003 15.554 3.70288 16 3.03906Z" fill="#39374D" fill-opacity="1.000000" fill-rule="nonzero"/>
	</g>
</svg>
