<svg width="17.000000" height="17.000000" viewBox="0 0 17 17" fill="none" xmlns="http://www.w3.org/2000/svg" xmlns:xlink="http://www.w3.org/1999/xlink">
	<desc>
			Created with Pixso.
	</desc>
	<defs>
		<clipPath id="clip1_50">
			<rect id="shopping-cart 1" width="17.000000" height="17.000000" fill="white" fill-opacity="0"/>
		</clipPath>
	</defs>
	<rect id="shopping-cart 1" width="17.000000" height="17.000000" fill="#FFFFFF" fill-opacity="0"/>
	<g clip-path="url(#clip1_50)">
		<path id="Vector" d="M5.47723 10.9905L5.478 10.9905C5.47864 10.9905 5.47931 10.9902 5.47995 10.9902L14.5098 10.9902C14.7321 10.9902 14.9275 10.8428 14.9886 10.6289L16.9808 3.65625C17.0237 3.5061 16.9937 3.34448 16.8996 3.21973C16.8055 3.09497 16.6582 3.02148 16.502 3.02148L4.32861 3.02148L3.97256 1.41919C3.92188 1.19141 3.71979 1.0293 3.48633 1.0293L0.498047 1.0293C0.222961 1.0293 0 1.2522 0 1.52734C0 1.80249 0.222961 2.02539 0.498047 2.02539L3.08685 2.02539C3.1499 2.30933 4.79059 9.69263 4.88501 10.1174C4.35571 10.3474 3.98438 10.8752 3.98438 11.4883C3.98438 12.312 4.65466 12.9824 5.47852 12.9824L14.5098 12.9824C14.7849 12.9824 15.0078 12.7595 15.0078 12.4844C15.0078 12.2092 14.7849 11.9863 14.5098 11.9863L5.47852 11.9863C5.20395 11.9863 4.98047 11.7629 4.98047 11.4883C4.98047 11.2141 5.20316 10.991 5.47723 10.9905ZM15.8416 4.01758L14.134 9.99414L5.87799 9.99414L4.54987 4.01758L15.8416 4.01758Z" fill="#FFFFFF" fill-opacity="1.000000" fill-rule="nonzero"/>
		<path id="Vector" d="M4.98047 14.4766C4.98047 15.3003 5.65076 15.9707 6.47461 15.9707C7.29846 15.9707 7.96875 15.3003 7.96875 14.4766C7.96875 13.6528 7.29846 12.9824 6.47461 12.9824C5.65076 12.9824 4.98047 13.6528 4.98047 14.4766ZM6.47461 13.9785C6.74918 13.9785 6.97266 14.2019 6.97266 14.4766C6.97266 14.7512 6.74918 14.9746 6.47461 14.9746C6.20004 14.9746 5.97656 14.7512 5.97656 14.4766C5.97656 14.2019 6.20004 13.9785 6.47461 13.9785Z" fill="#FFFFFF" fill-opacity="1.000000" fill-rule="nonzero"/>
		<path id="Vector" d="M12.0193 14.4766C12.0193 15.3003 12.6896 15.9707 13.5134 15.9707C14.3373 15.9707 15.0076 15.3003 15.0076 14.4766C15.0076 13.6528 14.3373 12.9824 13.5134 12.9824C12.6896 12.9824 12.0193 13.6528 12.0193 14.4766ZM13.5134 13.9785C13.788 13.9785 14.0115 14.2019 14.0115 14.4766C14.0115 14.7512 13.788 14.9746 13.5134 14.9746C13.2389 14.9746 13.0154 14.7512 13.0154 14.4766C13.0154 14.2019 13.2389 13.9785 13.5134 13.9785Z" fill="#FFFFFF" fill-opacity="1.000000" fill-rule="nonzero"/>
	</g>
</svg>
