<svg width="73.811279" height="16.408691" viewBox="0 0 73.8113 16.4087" fill="none" xmlns="http://www.w3.org/2000/svg" xmlns:xlink="http://www.w3.org/1999/xlink">
	<desc>
			Created with Pixso.
	</desc>
	<defs/>
	<path id="SWAY" d="M13.1914 5.2207L9.03418 5.2207C8.94824 4.18408 8.28223 3.56641 6.875 3.56641C5.53223 3.56641 4.94678 4.08203 4.94141 4.78564C4.89844 5.54834 5.58057 5.99414 7.09521 6.31641L8.40576 6.5957C11.9399 7.35303 13.3901 9.06641 13.4062 11.4995C13.3901 14.6577 10.9624 16.4087 6.90723 16.4087C2.73389 16.4087 0.0161133 14.6094 0 10.5972L4.125 10.5972C4.19482 12.0635 5.18311 12.8477 6.84814 12.8477C8.23389 12.8477 8.95361 12.2891 8.96973 11.4995C8.95361 10.7744 8.34668 10.3286 6.56348 9.94189L4.96826 9.59814C2.13232 8.98584 0.402832 7.59473 0.408203 5.09717C0.386719 2.04639 3.07227 0 6.875 0C10.7529 0 13.1753 2.07861 13.1914 5.2207ZM25.0422 16.2207L20.885 16.2207L16.1692 0.220215L21.0139 0.220215L23.1999 10.0654L23.3235 10.0654L25.9177 0.220215L29.7312 0.220215L32.3254 10.0977L32.449 10.0977L34.635 0.220215L39.4797 0.220215L34.7639 16.2207L30.6067 16.2207L27.8889 7.2832L27.76 7.2832L25.0422 16.2207ZM45.8476 13.1592L44.9292 16.2207L40.2402 16.2207L45.52 0.220215L51.4604 0.220215L56.7402 16.2207L52.0513 16.2207L51.1328 13.1592L45.8476 13.1592ZM63.6277 11.188L57.7517 0.220215L62.5964 0.220215L65.717 6.71924L65.8459 6.71924L68.9719 0.220215L73.8112 0.220215L67.9406 11.188L67.9406 16.2207L63.6277 16.2207L63.6277 11.188ZM48.4258 4.62451L46.8359 9.90967L50.1445 9.90967L48.5547 4.62451L48.4258 4.62451Z" fill="#FFFFFF" fill-opacity="1.000000" fill-rule="evenodd"/>
</svg>
